<svg xmlns="http://www.w3.org/2000/svg" width="1920" height="1920" viewBox="0 0 800 0">
  <g id="Web_1920_1">
    <g id="Group_1">
      <path id="Path_1" d="M203.774,118.951l-38.631-76.14a7.6,7.6,0,0,0-2.634-2.911L107.216,3.736a7.54,7.54,0,0,0-8.774.347L18.574,65.959a7.582,7.582,0,0,0-2.107,9.4l38.6,76.154a8.025,8.025,0,0,0,2.647,2.911l55.293,36.15a7.86,7.86,0,0,0,4.158,1.234,7.624,7.624,0,0,0,4.644-1.594l79.869-61.835A7.61,7.61,0,0,0,203.774,118.951Zm-21.748-9.37L143.658,84.505l-29.469-58.12,38.354,25.089ZM32.768,74.109,103.46,19.371l2.246,1.511,32.81,64.649L66.769,141.059Zm83.985,100.827L70.415,144.649l71.4-55.293,44.813,29.233.8,1.636Z" fill="#fff"/>
    </g>
  </g>
</svg>
